<mxfile host="app.diagrams.net" modified="2023-08-17T08:28:26.205Z" agent="Mozilla/5.0 (X11; Linux x86_64) AppleWebKit/537.36 (KHTML, like Gecko) Chrome/115.0.0.0 Safari/537.36" etag="OGlLFr17Rf_JzeuKMUz5" version="21.6.8" type="device" pages="6">
  <diagram name="Page-1" id="d59C5zg_7T1TeNgBpkGo">
    <mxGraphModel dx="879" dy="594" grid="1" gridSize="10" guides="1" tooltips="1" connect="1" arrows="1" fold="1" page="1" pageScale="1" pageWidth="1100" pageHeight="850" math="0" shadow="0">
      <root>
        <mxCell id="0" />
        <mxCell id="1" parent="0" />
        <mxCell id="HXuZYWFXMnalEL0bIfrd-1" value="" style="rounded=0;whiteSpace=wrap;html=1;" parent="1" vertex="1">
          <mxGeometry x="80" y="50" width="320" height="530" as="geometry" />
        </mxCell>
        <mxCell id="HXuZYWFXMnalEL0bIfrd-2" value="" style="rounded=0;whiteSpace=wrap;html=1;" parent="1" vertex="1">
          <mxGeometry x="400" y="50" width="640" height="530" as="geometry" />
        </mxCell>
        <mxCell id="HXuZYWFXMnalEL0bIfrd-3" value="main thread" style="shape=hexagon;perimeter=hexagonPerimeter2;whiteSpace=wrap;html=1;fixedSize=1;fontFamily=Ubuntu;fontSource=https%3A%2F%2Ffonts.googleapis.com%2Fcss%3Ffamily%3DUbuntu;fontSize=17;" parent="1" vertex="1">
          <mxGeometry x="180" y="10" width="120" height="30" as="geometry" />
        </mxCell>
        <mxCell id="HXuZYWFXMnalEL0bIfrd-4" value="STACK" style="text;html=1;strokeColor=none;fillColor=none;align=center;verticalAlign=middle;whiteSpace=wrap;rounded=0;fontFamily=Ubuntu;fontSource=https%3A%2F%2Ffonts.googleapis.com%2Fcss%3Ffamily%3DUbuntu;fontSize=16;fontStyle=1" parent="1" vertex="1">
          <mxGeometry x="200" y="590" width="60" height="30" as="geometry" />
        </mxCell>
        <mxCell id="HXuZYWFXMnalEL0bIfrd-5" value="HEAP" style="text;html=1;strokeColor=none;fillColor=none;align=center;verticalAlign=middle;whiteSpace=wrap;rounded=0;fontFamily=Ubuntu;fontSource=https%3A%2F%2Ffonts.googleapis.com%2Fcss%3Ffamily%3DUbuntu;fontSize=16;fontStyle=1" parent="1" vertex="1">
          <mxGeometry x="510" y="590" width="60" height="30" as="geometry" />
        </mxCell>
        <mxCell id="HXuZYWFXMnalEL0bIfrd-6" value="" style="rounded=0;whiteSpace=wrap;html=1;fillColor=#d5e8d4;strokeColor=#82b366;strokeWidth=10;" parent="1" vertex="1">
          <mxGeometry x="80" y="420" width="320" height="160" as="geometry" />
        </mxCell>
        <mxCell id="HXuZYWFXMnalEL0bIfrd-7" value="main()" style="text;html=1;strokeColor=#82b366;fillColor=#d5e8d4;align=center;verticalAlign=middle;whiteSpace=wrap;rounded=0;fontFamily=Ubuntu;fontSource=https%3A%2F%2Ffonts.googleapis.com%2Fcss%3Ffamily%3DUbuntu;fontSize=17;rotation=-90;" parent="1" vertex="1">
          <mxGeometry x="6.88" y="526.88" width="86.25" height="30" as="geometry" />
        </mxCell>
        <mxCell id="HXuZYWFXMnalEL0bIfrd-14" style="edgeStyle=orthogonalEdgeStyle;rounded=0;orthogonalLoop=1;jettySize=auto;html=1;entryX=0;entryY=0.5;entryDx=0;entryDy=0;" parent="1" source="HXuZYWFXMnalEL0bIfrd-8" target="HXuZYWFXMnalEL0bIfrd-12" edge="1">
          <mxGeometry relative="1" as="geometry" />
        </mxCell>
        <mxCell id="HXuZYWFXMnalEL0bIfrd-8" value="String[] args = 0xAF10" style="rounded=0;whiteSpace=wrap;html=1;fontFamily=Ubuntu;fontSource=https%3A%2F%2Ffonts.googleapis.com%2Fcss%3Ffamily%3DUbuntu;fontSize=17;" parent="1" vertex="1">
          <mxGeometry x="80" y="420" width="320" height="40" as="geometry" />
        </mxCell>
        <mxCell id="HXuZYWFXMnalEL0bIfrd-9" value="..." style="rounded=0;whiteSpace=wrap;html=1;fontFamily=Ubuntu;fontSource=https%3A%2F%2Ffonts.googleapis.com%2Fcss%3Ffamily%3DUbuntu;fontSize=17;" parent="1" vertex="1">
          <mxGeometry x="80" y="540" width="320" height="40" as="geometry" />
        </mxCell>
        <mxCell id="HXuZYWFXMnalEL0bIfrd-10" value="" style="rounded=0;whiteSpace=wrap;html=1;" parent="1" vertex="1">
          <mxGeometry x="490" y="240" width="20" height="40" as="geometry" />
        </mxCell>
        <mxCell id="HXuZYWFXMnalEL0bIfrd-11" value="int length = 0" style="rounded=0;whiteSpace=wrap;html=1;fontSize=18;fontFamily=Ubuntu;fontSource=https%3A%2F%2Ffonts.googleapis.com%2Fcss%3Ffamily%3DUbuntu;" parent="1" vertex="1">
          <mxGeometry x="490" y="280" width="140" height="40" as="geometry" />
        </mxCell>
        <mxCell id="HXuZYWFXMnalEL0bIfrd-12" value="0xAF10" style="rounded=0;whiteSpace=wrap;html=1;fontFamily=Ubuntu;fontSource=https%3A%2F%2Ffonts.googleapis.com%2Fcss%3Ffamily%3DUbuntu;fontSize=17;fillColor=#dae8fc;strokeColor=#6c8ebf;" parent="1" vertex="1">
          <mxGeometry x="490" y="210" width="140" height="30" as="geometry" />
        </mxCell>
        <mxCell id="HXuZYWFXMnalEL0bIfrd-13" value="..." style="rounded=0;whiteSpace=wrap;html=1;fontSize=18;fontFamily=Ubuntu;fontSource=https%3A%2F%2Ffonts.googleapis.com%2Fcss%3Ffamily%3DUbuntu;" parent="1" vertex="1">
          <mxGeometry x="490" y="320" width="140" height="40" as="geometry" />
        </mxCell>
        <mxCell id="ICK5VJWrA5xjREezXN3a-1" value="&lt;font style=&quot;font-size: 20px;&quot;&gt;&lt;br&gt;&lt;/font&gt;" style="text;html=1;strokeColor=#b85450;fillColor=#f8cecc;align=left;verticalAlign=top;whiteSpace=wrap;rounded=0;fontFamily=Ubuntu;fontSource=https%3A%2F%2Ffonts.googleapis.com%2Fcss%3Ffamily%3DUbuntu;fontSize=20;" parent="1" vertex="1">
          <mxGeometry x="710" y="80" width="480" height="230" as="geometry" />
        </mxCell>
        <mxCell id="IqrIysqMM0H9zdrx4pmy-1" value="int a = 5" style="rounded=0;whiteSpace=wrap;html=1;fontFamily=Ubuntu;fontSource=https%3A%2F%2Ffonts.googleapis.com%2Fcss%3Ffamily%3DUbuntu;fontSize=17;" vertex="1" parent="1">
          <mxGeometry x="80" y="460" width="320" height="40" as="geometry" />
        </mxCell>
        <mxCell id="IqrIysqMM0H9zdrx4pmy-7" style="edgeStyle=orthogonalEdgeStyle;rounded=0;orthogonalLoop=1;jettySize=auto;html=1;entryX=0;entryY=0.5;entryDx=0;entryDy=0;" edge="1" parent="1" source="IqrIysqMM0H9zdrx4pmy-2" target="IqrIysqMM0H9zdrx4pmy-5">
          <mxGeometry relative="1" as="geometry">
            <Array as="points">
              <mxPoint x="460" y="520" />
              <mxPoint x="460" y="395" />
            </Array>
          </mxGeometry>
        </mxCell>
        <mxCell id="IqrIysqMM0H9zdrx4pmy-2" value="int[] b = 0xAF11" style="rounded=0;whiteSpace=wrap;html=1;fontFamily=Ubuntu;fontSource=https%3A%2F%2Ffonts.googleapis.com%2Fcss%3Ffamily%3DUbuntu;fontSize=17;" vertex="1" parent="1">
          <mxGeometry x="80" y="500" width="320" height="40" as="geometry" />
        </mxCell>
        <mxCell id="IqrIysqMM0H9zdrx4pmy-3" value="5" style="rounded=0;whiteSpace=wrap;html=1;fontFamily=Ubuntu;fontSource=https%3A%2F%2Ffonts.googleapis.com%2Fcss%3Ffamily%3DUbuntu;fontSize=18;" vertex="1" parent="1">
          <mxGeometry x="490" y="410" width="60" height="50" as="geometry" />
        </mxCell>
        <mxCell id="IqrIysqMM0H9zdrx4pmy-4" value="int length = 1" style="rounded=0;whiteSpace=wrap;html=1;fontSize=18;fontFamily=Ubuntu;fontSource=https%3A%2F%2Ffonts.googleapis.com%2Fcss%3Ffamily%3DUbuntu;" vertex="1" parent="1">
          <mxGeometry x="490" y="460" width="140" height="40" as="geometry" />
        </mxCell>
        <mxCell id="IqrIysqMM0H9zdrx4pmy-5" value="0xAF11" style="rounded=0;whiteSpace=wrap;html=1;fontFamily=Ubuntu;fontSource=https%3A%2F%2Ffonts.googleapis.com%2Fcss%3Ffamily%3DUbuntu;fontSize=17;fillColor=#dae8fc;strokeColor=#6c8ebf;" vertex="1" parent="1">
          <mxGeometry x="490" y="380" width="140" height="30" as="geometry" />
        </mxCell>
        <mxCell id="IqrIysqMM0H9zdrx4pmy-6" value="..." style="rounded=0;whiteSpace=wrap;html=1;fontSize=18;fontFamily=Ubuntu;fontSource=https%3A%2F%2Ffonts.googleapis.com%2Fcss%3Ffamily%3DUbuntu;" vertex="1" parent="1">
          <mxGeometry x="490" y="500" width="140" height="40" as="geometry" />
        </mxCell>
      </root>
    </mxGraphModel>
  </diagram>
  <diagram name="Page-2" id="if-Ardx-QY-g59Qk_hPG">
    <mxGraphModel dx="879" dy="594" grid="1" gridSize="10" guides="1" tooltips="1" connect="1" arrows="1" fold="1" page="1" pageScale="1" pageWidth="1100" pageHeight="850" math="0" shadow="0">
      <root>
        <mxCell id="5QoRaWscRKBLFEkbIoib-0" />
        <mxCell id="5QoRaWscRKBLFEkbIoib-1" parent="5QoRaWscRKBLFEkbIoib-0" />
        <mxCell id="5QoRaWscRKBLFEkbIoib-2" value="" style="rounded=0;whiteSpace=wrap;html=1;" vertex="1" parent="5QoRaWscRKBLFEkbIoib-1">
          <mxGeometry x="80" y="50" width="320" height="530" as="geometry" />
        </mxCell>
        <mxCell id="5QoRaWscRKBLFEkbIoib-3" value="" style="rounded=0;whiteSpace=wrap;html=1;" vertex="1" parent="5QoRaWscRKBLFEkbIoib-1">
          <mxGeometry x="400" y="50" width="640" height="530" as="geometry" />
        </mxCell>
        <mxCell id="5QoRaWscRKBLFEkbIoib-4" value="main thread" style="shape=hexagon;perimeter=hexagonPerimeter2;whiteSpace=wrap;html=1;fixedSize=1;fontFamily=Ubuntu;fontSource=https%3A%2F%2Ffonts.googleapis.com%2Fcss%3Ffamily%3DUbuntu;fontSize=17;" vertex="1" parent="5QoRaWscRKBLFEkbIoib-1">
          <mxGeometry x="180" y="10" width="120" height="30" as="geometry" />
        </mxCell>
        <mxCell id="5QoRaWscRKBLFEkbIoib-5" value="STACK" style="text;html=1;strokeColor=none;fillColor=none;align=center;verticalAlign=middle;whiteSpace=wrap;rounded=0;fontFamily=Ubuntu;fontSource=https%3A%2F%2Ffonts.googleapis.com%2Fcss%3Ffamily%3DUbuntu;fontSize=16;fontStyle=1" vertex="1" parent="5QoRaWscRKBLFEkbIoib-1">
          <mxGeometry x="200" y="590" width="60" height="30" as="geometry" />
        </mxCell>
        <mxCell id="5QoRaWscRKBLFEkbIoib-6" value="HEAP" style="text;html=1;strokeColor=none;fillColor=none;align=center;verticalAlign=middle;whiteSpace=wrap;rounded=0;fontFamily=Ubuntu;fontSource=https%3A%2F%2Ffonts.googleapis.com%2Fcss%3Ffamily%3DUbuntu;fontSize=16;fontStyle=1" vertex="1" parent="5QoRaWscRKBLFEkbIoib-1">
          <mxGeometry x="510" y="590" width="60" height="30" as="geometry" />
        </mxCell>
        <mxCell id="5QoRaWscRKBLFEkbIoib-7" value="" style="rounded=0;whiteSpace=wrap;html=1;fillColor=#d5e8d4;strokeColor=#82b366;strokeWidth=10;" vertex="1" parent="5QoRaWscRKBLFEkbIoib-1">
          <mxGeometry x="80" y="420" width="320" height="160" as="geometry" />
        </mxCell>
        <mxCell id="5QoRaWscRKBLFEkbIoib-8" value="main()" style="text;html=1;strokeColor=#82b366;fillColor=#d5e8d4;align=center;verticalAlign=middle;whiteSpace=wrap;rounded=0;fontFamily=Ubuntu;fontSource=https%3A%2F%2Ffonts.googleapis.com%2Fcss%3Ffamily%3DUbuntu;fontSize=17;rotation=-90;" vertex="1" parent="5QoRaWscRKBLFEkbIoib-1">
          <mxGeometry x="6.88" y="526.88" width="86.25" height="30" as="geometry" />
        </mxCell>
        <mxCell id="5QoRaWscRKBLFEkbIoib-9" style="edgeStyle=orthogonalEdgeStyle;rounded=0;orthogonalLoop=1;jettySize=auto;html=1;entryX=0;entryY=0.5;entryDx=0;entryDy=0;" edge="1" parent="5QoRaWscRKBLFEkbIoib-1" source="5QoRaWscRKBLFEkbIoib-10" target="5QoRaWscRKBLFEkbIoib-14">
          <mxGeometry relative="1" as="geometry" />
        </mxCell>
        <mxCell id="5QoRaWscRKBLFEkbIoib-10" value="String[] args = 0xAF10" style="rounded=0;whiteSpace=wrap;html=1;fontFamily=Ubuntu;fontSource=https%3A%2F%2Ffonts.googleapis.com%2Fcss%3Ffamily%3DUbuntu;fontSize=17;" vertex="1" parent="5QoRaWscRKBLFEkbIoib-1">
          <mxGeometry x="80" y="420" width="320" height="40" as="geometry" />
        </mxCell>
        <mxCell id="5QoRaWscRKBLFEkbIoib-11" value="..." style="rounded=0;whiteSpace=wrap;html=1;fontFamily=Ubuntu;fontSource=https%3A%2F%2Ffonts.googleapis.com%2Fcss%3Ffamily%3DUbuntu;fontSize=17;" vertex="1" parent="5QoRaWscRKBLFEkbIoib-1">
          <mxGeometry x="80" y="540" width="320" height="40" as="geometry" />
        </mxCell>
        <mxCell id="5QoRaWscRKBLFEkbIoib-12" value="" style="rounded=0;whiteSpace=wrap;html=1;" vertex="1" parent="5QoRaWscRKBLFEkbIoib-1">
          <mxGeometry x="490" y="240" width="20" height="40" as="geometry" />
        </mxCell>
        <mxCell id="5QoRaWscRKBLFEkbIoib-13" value="int length = 0" style="rounded=0;whiteSpace=wrap;html=1;fontSize=18;fontFamily=Ubuntu;fontSource=https%3A%2F%2Ffonts.googleapis.com%2Fcss%3Ffamily%3DUbuntu;" vertex="1" parent="5QoRaWscRKBLFEkbIoib-1">
          <mxGeometry x="490" y="280" width="140" height="40" as="geometry" />
        </mxCell>
        <mxCell id="5QoRaWscRKBLFEkbIoib-14" value="0xAF10" style="rounded=0;whiteSpace=wrap;html=1;fontFamily=Ubuntu;fontSource=https%3A%2F%2Ffonts.googleapis.com%2Fcss%3Ffamily%3DUbuntu;fontSize=17;fillColor=#dae8fc;strokeColor=#6c8ebf;" vertex="1" parent="5QoRaWscRKBLFEkbIoib-1">
          <mxGeometry x="490" y="210" width="140" height="30" as="geometry" />
        </mxCell>
        <mxCell id="5QoRaWscRKBLFEkbIoib-15" value="..." style="rounded=0;whiteSpace=wrap;html=1;fontSize=18;fontFamily=Ubuntu;fontSource=https%3A%2F%2Ffonts.googleapis.com%2Fcss%3Ffamily%3DUbuntu;" vertex="1" parent="5QoRaWscRKBLFEkbIoib-1">
          <mxGeometry x="490" y="320" width="140" height="40" as="geometry" />
        </mxCell>
        <mxCell id="5QoRaWscRKBLFEkbIoib-16" value="&lt;font style=&quot;font-size: 20px;&quot;&gt;&lt;br&gt;&lt;/font&gt;" style="text;html=1;strokeColor=#b85450;fillColor=#f8cecc;align=left;verticalAlign=top;whiteSpace=wrap;rounded=0;fontFamily=Ubuntu;fontSource=https%3A%2F%2Ffonts.googleapis.com%2Fcss%3Ffamily%3DUbuntu;fontSize=20;" vertex="1" parent="5QoRaWscRKBLFEkbIoib-1">
          <mxGeometry x="710" y="80" width="480" height="230" as="geometry" />
        </mxCell>
        <mxCell id="5QoRaWscRKBLFEkbIoib-17" value="int a = 5" style="rounded=0;whiteSpace=wrap;html=1;fontFamily=Ubuntu;fontSource=https%3A%2F%2Ffonts.googleapis.com%2Fcss%3Ffamily%3DUbuntu;fontSize=17;" vertex="1" parent="5QoRaWscRKBLFEkbIoib-1">
          <mxGeometry x="80" y="460" width="320" height="40" as="geometry" />
        </mxCell>
        <mxCell id="5QoRaWscRKBLFEkbIoib-18" style="edgeStyle=orthogonalEdgeStyle;rounded=0;orthogonalLoop=1;jettySize=auto;html=1;entryX=0;entryY=0.5;entryDx=0;entryDy=0;" edge="1" parent="5QoRaWscRKBLFEkbIoib-1" source="5QoRaWscRKBLFEkbIoib-19" target="5QoRaWscRKBLFEkbIoib-22">
          <mxGeometry relative="1" as="geometry">
            <Array as="points">
              <mxPoint x="460" y="520" />
              <mxPoint x="460" y="395" />
            </Array>
          </mxGeometry>
        </mxCell>
        <mxCell id="5QoRaWscRKBLFEkbIoib-19" value="int[] b = 0xAF11" style="rounded=0;whiteSpace=wrap;html=1;fontFamily=Ubuntu;fontSource=https%3A%2F%2Ffonts.googleapis.com%2Fcss%3Ffamily%3DUbuntu;fontSize=17;" vertex="1" parent="5QoRaWscRKBLFEkbIoib-1">
          <mxGeometry x="80" y="500" width="320" height="40" as="geometry" />
        </mxCell>
        <mxCell id="5QoRaWscRKBLFEkbIoib-20" value="5" style="rounded=0;whiteSpace=wrap;html=1;fontFamily=Ubuntu;fontSource=https%3A%2F%2Ffonts.googleapis.com%2Fcss%3Ffamily%3DUbuntu;fontSize=18;" vertex="1" parent="5QoRaWscRKBLFEkbIoib-1">
          <mxGeometry x="490" y="410" width="60" height="50" as="geometry" />
        </mxCell>
        <mxCell id="5QoRaWscRKBLFEkbIoib-21" value="int length = 1" style="rounded=0;whiteSpace=wrap;html=1;fontSize=18;fontFamily=Ubuntu;fontSource=https%3A%2F%2Ffonts.googleapis.com%2Fcss%3Ffamily%3DUbuntu;" vertex="1" parent="5QoRaWscRKBLFEkbIoib-1">
          <mxGeometry x="490" y="460" width="140" height="40" as="geometry" />
        </mxCell>
        <mxCell id="5QoRaWscRKBLFEkbIoib-22" value="0xAF11" style="rounded=0;whiteSpace=wrap;html=1;fontFamily=Ubuntu;fontSource=https%3A%2F%2Ffonts.googleapis.com%2Fcss%3Ffamily%3DUbuntu;fontSize=17;fillColor=#dae8fc;strokeColor=#6c8ebf;" vertex="1" parent="5QoRaWscRKBLFEkbIoib-1">
          <mxGeometry x="490" y="380" width="140" height="30" as="geometry" />
        </mxCell>
        <mxCell id="5QoRaWscRKBLFEkbIoib-23" value="..." style="rounded=0;whiteSpace=wrap;html=1;fontSize=18;fontFamily=Ubuntu;fontSource=https%3A%2F%2Ffonts.googleapis.com%2Fcss%3Ffamily%3DUbuntu;" vertex="1" parent="5QoRaWscRKBLFEkbIoib-1">
          <mxGeometry x="490" y="500" width="140" height="40" as="geometry" />
        </mxCell>
        <mxCell id="fTxNH3fwFnU07MNkP6Wi-0" value="" style="rounded=0;whiteSpace=wrap;html=1;fillColor=#e1d5e7;strokeColor=#9673a6;strokeWidth=10;" vertex="1" parent="5QoRaWscRKBLFEkbIoib-1">
          <mxGeometry x="80" y="330" width="320" height="80" as="geometry" />
        </mxCell>
        <mxCell id="fTxNH3fwFnU07MNkP6Wi-1" value="myMethod1" style="text;html=1;strokeColor=#9673a6;fillColor=#e1d5e7;align=center;verticalAlign=middle;whiteSpace=wrap;rounded=0;fontFamily=Ubuntu;fontSource=https%3A%2F%2Ffonts.googleapis.com%2Fcss%3Ffamily%3DUbuntu;fontSize=17;rotation=-90;" vertex="1" parent="5QoRaWscRKBLFEkbIoib-1">
          <mxGeometry y="345" width="103.12" height="30" as="geometry" />
        </mxCell>
        <mxCell id="fTxNH3fwFnU07MNkP6Wi-2" value="int num = 10" style="rounded=0;whiteSpace=wrap;html=1;fontFamily=Ubuntu;fontSource=https%3A%2F%2Ffonts.googleapis.com%2Fcss%3Ffamily%3DUbuntu;fontSize=17;" vertex="1" parent="5QoRaWscRKBLFEkbIoib-1">
          <mxGeometry x="80" y="330" width="320" height="40" as="geometry" />
        </mxCell>
        <mxCell id="fTxNH3fwFnU07MNkP6Wi-3" value="..." style="rounded=0;whiteSpace=wrap;html=1;fontFamily=Ubuntu;fontSource=https%3A%2F%2Ffonts.googleapis.com%2Fcss%3Ffamily%3DUbuntu;fontSize=17;" vertex="1" parent="5QoRaWscRKBLFEkbIoib-1">
          <mxGeometry x="80" y="370" width="320" height="40" as="geometry" />
        </mxCell>
      </root>
    </mxGraphModel>
  </diagram>
  <diagram name="Page-3" id="0F-V5C7wL1zyJZe8LTKZ">
    <mxGraphModel dx="879" dy="594" grid="1" gridSize="10" guides="1" tooltips="1" connect="1" arrows="1" fold="1" page="1" pageScale="1" pageWidth="1100" pageHeight="850" math="0" shadow="0">
      <root>
        <mxCell id="sevOI8jeegF15-AyEGhm-0" />
        <mxCell id="sevOI8jeegF15-AyEGhm-1" parent="sevOI8jeegF15-AyEGhm-0" />
        <mxCell id="sevOI8jeegF15-AyEGhm-2" value="" style="rounded=0;whiteSpace=wrap;html=1;" vertex="1" parent="sevOI8jeegF15-AyEGhm-1">
          <mxGeometry x="80" y="50" width="320" height="530" as="geometry" />
        </mxCell>
        <mxCell id="sevOI8jeegF15-AyEGhm-3" value="" style="rounded=0;whiteSpace=wrap;html=1;" vertex="1" parent="sevOI8jeegF15-AyEGhm-1">
          <mxGeometry x="400" y="50" width="640" height="530" as="geometry" />
        </mxCell>
        <mxCell id="sevOI8jeegF15-AyEGhm-4" value="main thread" style="shape=hexagon;perimeter=hexagonPerimeter2;whiteSpace=wrap;html=1;fixedSize=1;fontFamily=Ubuntu;fontSource=https%3A%2F%2Ffonts.googleapis.com%2Fcss%3Ffamily%3DUbuntu;fontSize=17;" vertex="1" parent="sevOI8jeegF15-AyEGhm-1">
          <mxGeometry x="180" y="10" width="120" height="30" as="geometry" />
        </mxCell>
        <mxCell id="sevOI8jeegF15-AyEGhm-5" value="STACK" style="text;html=1;strokeColor=none;fillColor=none;align=center;verticalAlign=middle;whiteSpace=wrap;rounded=0;fontFamily=Ubuntu;fontSource=https%3A%2F%2Ffonts.googleapis.com%2Fcss%3Ffamily%3DUbuntu;fontSize=16;fontStyle=1" vertex="1" parent="sevOI8jeegF15-AyEGhm-1">
          <mxGeometry x="200" y="590" width="60" height="30" as="geometry" />
        </mxCell>
        <mxCell id="sevOI8jeegF15-AyEGhm-6" value="HEAP" style="text;html=1;strokeColor=none;fillColor=none;align=center;verticalAlign=middle;whiteSpace=wrap;rounded=0;fontFamily=Ubuntu;fontSource=https%3A%2F%2Ffonts.googleapis.com%2Fcss%3Ffamily%3DUbuntu;fontSize=16;fontStyle=1" vertex="1" parent="sevOI8jeegF15-AyEGhm-1">
          <mxGeometry x="510" y="590" width="60" height="30" as="geometry" />
        </mxCell>
        <mxCell id="sevOI8jeegF15-AyEGhm-7" value="" style="rounded=0;whiteSpace=wrap;html=1;fillColor=#d5e8d4;strokeColor=#82b366;strokeWidth=10;" vertex="1" parent="sevOI8jeegF15-AyEGhm-1">
          <mxGeometry x="80" y="420" width="320" height="160" as="geometry" />
        </mxCell>
        <mxCell id="sevOI8jeegF15-AyEGhm-8" value="main()" style="text;html=1;strokeColor=#82b366;fillColor=#d5e8d4;align=center;verticalAlign=middle;whiteSpace=wrap;rounded=0;fontFamily=Ubuntu;fontSource=https%3A%2F%2Ffonts.googleapis.com%2Fcss%3Ffamily%3DUbuntu;fontSize=17;rotation=-90;" vertex="1" parent="sevOI8jeegF15-AyEGhm-1">
          <mxGeometry x="6.88" y="526.88" width="86.25" height="30" as="geometry" />
        </mxCell>
        <mxCell id="sevOI8jeegF15-AyEGhm-9" style="edgeStyle=orthogonalEdgeStyle;rounded=0;orthogonalLoop=1;jettySize=auto;html=1;entryX=0;entryY=0.5;entryDx=0;entryDy=0;" edge="1" parent="sevOI8jeegF15-AyEGhm-1" source="sevOI8jeegF15-AyEGhm-10" target="sevOI8jeegF15-AyEGhm-14">
          <mxGeometry relative="1" as="geometry" />
        </mxCell>
        <mxCell id="sevOI8jeegF15-AyEGhm-10" value="String[] args = 0xAF10" style="rounded=0;whiteSpace=wrap;html=1;fontFamily=Ubuntu;fontSource=https%3A%2F%2Ffonts.googleapis.com%2Fcss%3Ffamily%3DUbuntu;fontSize=17;" vertex="1" parent="sevOI8jeegF15-AyEGhm-1">
          <mxGeometry x="80" y="420" width="320" height="40" as="geometry" />
        </mxCell>
        <mxCell id="sevOI8jeegF15-AyEGhm-11" value="..." style="rounded=0;whiteSpace=wrap;html=1;fontFamily=Ubuntu;fontSource=https%3A%2F%2Ffonts.googleapis.com%2Fcss%3Ffamily%3DUbuntu;fontSize=17;" vertex="1" parent="sevOI8jeegF15-AyEGhm-1">
          <mxGeometry x="80" y="540" width="320" height="40" as="geometry" />
        </mxCell>
        <mxCell id="sevOI8jeegF15-AyEGhm-12" value="" style="rounded=0;whiteSpace=wrap;html=1;" vertex="1" parent="sevOI8jeegF15-AyEGhm-1">
          <mxGeometry x="490" y="240" width="20" height="40" as="geometry" />
        </mxCell>
        <mxCell id="sevOI8jeegF15-AyEGhm-13" value="int length = 0" style="rounded=0;whiteSpace=wrap;html=1;fontSize=18;fontFamily=Ubuntu;fontSource=https%3A%2F%2Ffonts.googleapis.com%2Fcss%3Ffamily%3DUbuntu;" vertex="1" parent="sevOI8jeegF15-AyEGhm-1">
          <mxGeometry x="490" y="280" width="140" height="40" as="geometry" />
        </mxCell>
        <mxCell id="sevOI8jeegF15-AyEGhm-14" value="0xAF10" style="rounded=0;whiteSpace=wrap;html=1;fontFamily=Ubuntu;fontSource=https%3A%2F%2Ffonts.googleapis.com%2Fcss%3Ffamily%3DUbuntu;fontSize=17;fillColor=#dae8fc;strokeColor=#6c8ebf;" vertex="1" parent="sevOI8jeegF15-AyEGhm-1">
          <mxGeometry x="490" y="210" width="140" height="30" as="geometry" />
        </mxCell>
        <mxCell id="sevOI8jeegF15-AyEGhm-15" value="..." style="rounded=0;whiteSpace=wrap;html=1;fontSize=18;fontFamily=Ubuntu;fontSource=https%3A%2F%2Ffonts.googleapis.com%2Fcss%3Ffamily%3DUbuntu;" vertex="1" parent="sevOI8jeegF15-AyEGhm-1">
          <mxGeometry x="490" y="320" width="140" height="40" as="geometry" />
        </mxCell>
        <mxCell id="sevOI8jeegF15-AyEGhm-16" value="&lt;font style=&quot;font-size: 20px;&quot;&gt;5&lt;br&gt;&lt;/font&gt;" style="text;html=1;strokeColor=#b85450;fillColor=#f8cecc;align=left;verticalAlign=top;whiteSpace=wrap;rounded=0;fontFamily=Ubuntu;fontSource=https%3A%2F%2Ffonts.googleapis.com%2Fcss%3Ffamily%3DUbuntu;fontSize=20;" vertex="1" parent="sevOI8jeegF15-AyEGhm-1">
          <mxGeometry x="710" y="80" width="480" height="230" as="geometry" />
        </mxCell>
        <mxCell id="sevOI8jeegF15-AyEGhm-17" value="int a = 5" style="rounded=0;whiteSpace=wrap;html=1;fontFamily=Ubuntu;fontSource=https%3A%2F%2Ffonts.googleapis.com%2Fcss%3Ffamily%3DUbuntu;fontSize=17;" vertex="1" parent="sevOI8jeegF15-AyEGhm-1">
          <mxGeometry x="80" y="460" width="320" height="40" as="geometry" />
        </mxCell>
        <mxCell id="sevOI8jeegF15-AyEGhm-18" style="edgeStyle=orthogonalEdgeStyle;rounded=0;orthogonalLoop=1;jettySize=auto;html=1;entryX=0;entryY=0.5;entryDx=0;entryDy=0;" edge="1" parent="sevOI8jeegF15-AyEGhm-1" source="sevOI8jeegF15-AyEGhm-19" target="sevOI8jeegF15-AyEGhm-22">
          <mxGeometry relative="1" as="geometry">
            <Array as="points">
              <mxPoint x="460" y="520" />
              <mxPoint x="460" y="395" />
            </Array>
          </mxGeometry>
        </mxCell>
        <mxCell id="sevOI8jeegF15-AyEGhm-19" value="int[] b = 0xAF11" style="rounded=0;whiteSpace=wrap;html=1;fontFamily=Ubuntu;fontSource=https%3A%2F%2Ffonts.googleapis.com%2Fcss%3Ffamily%3DUbuntu;fontSize=17;" vertex="1" parent="sevOI8jeegF15-AyEGhm-1">
          <mxGeometry x="80" y="500" width="320" height="40" as="geometry" />
        </mxCell>
        <mxCell id="sevOI8jeegF15-AyEGhm-20" value="5" style="rounded=0;whiteSpace=wrap;html=1;fontFamily=Ubuntu;fontSource=https%3A%2F%2Ffonts.googleapis.com%2Fcss%3Ffamily%3DUbuntu;fontSize=18;" vertex="1" parent="sevOI8jeegF15-AyEGhm-1">
          <mxGeometry x="490" y="410" width="60" height="50" as="geometry" />
        </mxCell>
        <mxCell id="sevOI8jeegF15-AyEGhm-21" value="int length = 1" style="rounded=0;whiteSpace=wrap;html=1;fontSize=18;fontFamily=Ubuntu;fontSource=https%3A%2F%2Ffonts.googleapis.com%2Fcss%3Ffamily%3DUbuntu;" vertex="1" parent="sevOI8jeegF15-AyEGhm-1">
          <mxGeometry x="490" y="460" width="140" height="40" as="geometry" />
        </mxCell>
        <mxCell id="sevOI8jeegF15-AyEGhm-22" value="0xAF11" style="rounded=0;whiteSpace=wrap;html=1;fontFamily=Ubuntu;fontSource=https%3A%2F%2Ffonts.googleapis.com%2Fcss%3Ffamily%3DUbuntu;fontSize=17;fillColor=#dae8fc;strokeColor=#6c8ebf;" vertex="1" parent="sevOI8jeegF15-AyEGhm-1">
          <mxGeometry x="490" y="380" width="140" height="30" as="geometry" />
        </mxCell>
        <mxCell id="sevOI8jeegF15-AyEGhm-23" value="..." style="rounded=0;whiteSpace=wrap;html=1;fontSize=18;fontFamily=Ubuntu;fontSource=https%3A%2F%2Ffonts.googleapis.com%2Fcss%3Ffamily%3DUbuntu;" vertex="1" parent="sevOI8jeegF15-AyEGhm-1">
          <mxGeometry x="490" y="500" width="140" height="40" as="geometry" />
        </mxCell>
      </root>
    </mxGraphModel>
  </diagram>
  <diagram name="Page-4" id="YmXHlkfEeuIzshLwVzAY">
    <mxGraphModel dx="879" dy="485" grid="1" gridSize="10" guides="1" tooltips="1" connect="1" arrows="1" fold="1" page="1" pageScale="1" pageWidth="1100" pageHeight="850" math="0" shadow="0">
      <root>
        <mxCell id="-W8sQh3IrjSb4tXSnn8a-0" />
        <mxCell id="-W8sQh3IrjSb4tXSnn8a-1" parent="-W8sQh3IrjSb4tXSnn8a-0" />
        <mxCell id="-W8sQh3IrjSb4tXSnn8a-2" value="" style="rounded=0;whiteSpace=wrap;html=1;" vertex="1" parent="-W8sQh3IrjSb4tXSnn8a-1">
          <mxGeometry x="80" y="50" width="320" height="530" as="geometry" />
        </mxCell>
        <mxCell id="-W8sQh3IrjSb4tXSnn8a-3" value="" style="rounded=0;whiteSpace=wrap;html=1;" vertex="1" parent="-W8sQh3IrjSb4tXSnn8a-1">
          <mxGeometry x="400" y="50" width="640" height="530" as="geometry" />
        </mxCell>
        <mxCell id="-W8sQh3IrjSb4tXSnn8a-4" value="main thread" style="shape=hexagon;perimeter=hexagonPerimeter2;whiteSpace=wrap;html=1;fixedSize=1;fontFamily=Ubuntu;fontSource=https%3A%2F%2Ffonts.googleapis.com%2Fcss%3Ffamily%3DUbuntu;fontSize=17;" vertex="1" parent="-W8sQh3IrjSb4tXSnn8a-1">
          <mxGeometry x="180" y="10" width="120" height="30" as="geometry" />
        </mxCell>
        <mxCell id="-W8sQh3IrjSb4tXSnn8a-5" value="STACK" style="text;html=1;strokeColor=none;fillColor=none;align=center;verticalAlign=middle;whiteSpace=wrap;rounded=0;fontFamily=Ubuntu;fontSource=https%3A%2F%2Ffonts.googleapis.com%2Fcss%3Ffamily%3DUbuntu;fontSize=16;fontStyle=1" vertex="1" parent="-W8sQh3IrjSb4tXSnn8a-1">
          <mxGeometry x="200" y="590" width="60" height="30" as="geometry" />
        </mxCell>
        <mxCell id="-W8sQh3IrjSb4tXSnn8a-6" value="HEAP" style="text;html=1;strokeColor=none;fillColor=none;align=center;verticalAlign=middle;whiteSpace=wrap;rounded=0;fontFamily=Ubuntu;fontSource=https%3A%2F%2Ffonts.googleapis.com%2Fcss%3Ffamily%3DUbuntu;fontSize=16;fontStyle=1" vertex="1" parent="-W8sQh3IrjSb4tXSnn8a-1">
          <mxGeometry x="510" y="590" width="60" height="30" as="geometry" />
        </mxCell>
        <mxCell id="-W8sQh3IrjSb4tXSnn8a-7" value="" style="rounded=0;whiteSpace=wrap;html=1;fillColor=#d5e8d4;strokeColor=#82b366;strokeWidth=10;" vertex="1" parent="-W8sQh3IrjSb4tXSnn8a-1">
          <mxGeometry x="80" y="420" width="320" height="160" as="geometry" />
        </mxCell>
        <mxCell id="-W8sQh3IrjSb4tXSnn8a-8" value="main()" style="text;html=1;strokeColor=#82b366;fillColor=#d5e8d4;align=center;verticalAlign=middle;whiteSpace=wrap;rounded=0;fontFamily=Ubuntu;fontSource=https%3A%2F%2Ffonts.googleapis.com%2Fcss%3Ffamily%3DUbuntu;fontSize=17;rotation=-90;" vertex="1" parent="-W8sQh3IrjSb4tXSnn8a-1">
          <mxGeometry x="6.88" y="526.88" width="86.25" height="30" as="geometry" />
        </mxCell>
        <mxCell id="-W8sQh3IrjSb4tXSnn8a-9" style="edgeStyle=orthogonalEdgeStyle;rounded=0;orthogonalLoop=1;jettySize=auto;html=1;entryX=0;entryY=0.5;entryDx=0;entryDy=0;" edge="1" parent="-W8sQh3IrjSb4tXSnn8a-1" source="-W8sQh3IrjSb4tXSnn8a-10" target="-W8sQh3IrjSb4tXSnn8a-14">
          <mxGeometry relative="1" as="geometry" />
        </mxCell>
        <mxCell id="-W8sQh3IrjSb4tXSnn8a-10" value="String[] args = 0xAF10" style="rounded=0;whiteSpace=wrap;html=1;fontFamily=Ubuntu;fontSource=https%3A%2F%2Ffonts.googleapis.com%2Fcss%3Ffamily%3DUbuntu;fontSize=17;" vertex="1" parent="-W8sQh3IrjSb4tXSnn8a-1">
          <mxGeometry x="80" y="420" width="320" height="40" as="geometry" />
        </mxCell>
        <mxCell id="-W8sQh3IrjSb4tXSnn8a-11" value="..." style="rounded=0;whiteSpace=wrap;html=1;fontFamily=Ubuntu;fontSource=https%3A%2F%2Ffonts.googleapis.com%2Fcss%3Ffamily%3DUbuntu;fontSize=17;" vertex="1" parent="-W8sQh3IrjSb4tXSnn8a-1">
          <mxGeometry x="80" y="540" width="320" height="40" as="geometry" />
        </mxCell>
        <mxCell id="-W8sQh3IrjSb4tXSnn8a-12" value="" style="rounded=0;whiteSpace=wrap;html=1;" vertex="1" parent="-W8sQh3IrjSb4tXSnn8a-1">
          <mxGeometry x="490" y="240" width="20" height="40" as="geometry" />
        </mxCell>
        <mxCell id="-W8sQh3IrjSb4tXSnn8a-13" value="int length = 0" style="rounded=0;whiteSpace=wrap;html=1;fontSize=18;fontFamily=Ubuntu;fontSource=https%3A%2F%2Ffonts.googleapis.com%2Fcss%3Ffamily%3DUbuntu;" vertex="1" parent="-W8sQh3IrjSb4tXSnn8a-1">
          <mxGeometry x="490" y="280" width="140" height="40" as="geometry" />
        </mxCell>
        <mxCell id="-W8sQh3IrjSb4tXSnn8a-14" value="0xAF10" style="rounded=0;whiteSpace=wrap;html=1;fontFamily=Ubuntu;fontSource=https%3A%2F%2Ffonts.googleapis.com%2Fcss%3Ffamily%3DUbuntu;fontSize=17;fillColor=#dae8fc;strokeColor=#6c8ebf;" vertex="1" parent="-W8sQh3IrjSb4tXSnn8a-1">
          <mxGeometry x="490" y="210" width="140" height="30" as="geometry" />
        </mxCell>
        <mxCell id="-W8sQh3IrjSb4tXSnn8a-15" value="..." style="rounded=0;whiteSpace=wrap;html=1;fontSize=18;fontFamily=Ubuntu;fontSource=https%3A%2F%2Ffonts.googleapis.com%2Fcss%3Ffamily%3DUbuntu;" vertex="1" parent="-W8sQh3IrjSb4tXSnn8a-1">
          <mxGeometry x="490" y="320" width="140" height="40" as="geometry" />
        </mxCell>
        <mxCell id="-W8sQh3IrjSb4tXSnn8a-16" value="&lt;font style=&quot;font-size: 20px;&quot;&gt;5&lt;br&gt;&lt;/font&gt;" style="text;html=1;strokeColor=#b85450;fillColor=#f8cecc;align=left;verticalAlign=top;whiteSpace=wrap;rounded=0;fontFamily=Ubuntu;fontSource=https%3A%2F%2Ffonts.googleapis.com%2Fcss%3Ffamily%3DUbuntu;fontSize=20;" vertex="1" parent="-W8sQh3IrjSb4tXSnn8a-1">
          <mxGeometry x="710" y="80" width="480" height="230" as="geometry" />
        </mxCell>
        <mxCell id="-W8sQh3IrjSb4tXSnn8a-17" value="int a = 5" style="rounded=0;whiteSpace=wrap;html=1;fontFamily=Ubuntu;fontSource=https%3A%2F%2Ffonts.googleapis.com%2Fcss%3Ffamily%3DUbuntu;fontSize=17;" vertex="1" parent="-W8sQh3IrjSb4tXSnn8a-1">
          <mxGeometry x="80" y="460" width="320" height="40" as="geometry" />
        </mxCell>
        <mxCell id="-W8sQh3IrjSb4tXSnn8a-18" style="edgeStyle=orthogonalEdgeStyle;rounded=0;orthogonalLoop=1;jettySize=auto;html=1;entryX=0;entryY=0.5;entryDx=0;entryDy=0;" edge="1" parent="-W8sQh3IrjSb4tXSnn8a-1" source="-W8sQh3IrjSb4tXSnn8a-19" target="-W8sQh3IrjSb4tXSnn8a-22">
          <mxGeometry relative="1" as="geometry">
            <Array as="points">
              <mxPoint x="460" y="520" />
              <mxPoint x="460" y="395" />
            </Array>
          </mxGeometry>
        </mxCell>
        <mxCell id="-W8sQh3IrjSb4tXSnn8a-19" value="int[] b = 0xAF11" style="rounded=0;whiteSpace=wrap;html=1;fontFamily=Ubuntu;fontSource=https%3A%2F%2Ffonts.googleapis.com%2Fcss%3Ffamily%3DUbuntu;fontSize=17;" vertex="1" parent="-W8sQh3IrjSb4tXSnn8a-1">
          <mxGeometry x="80" y="500" width="320" height="40" as="geometry" />
        </mxCell>
        <mxCell id="-W8sQh3IrjSb4tXSnn8a-20" value="10" style="rounded=0;whiteSpace=wrap;html=1;fontFamily=Ubuntu;fontSource=https%3A%2F%2Ffonts.googleapis.com%2Fcss%3Ffamily%3DUbuntu;fontSize=18;" vertex="1" parent="-W8sQh3IrjSb4tXSnn8a-1">
          <mxGeometry x="490" y="410" width="60" height="50" as="geometry" />
        </mxCell>
        <mxCell id="-W8sQh3IrjSb4tXSnn8a-21" value="int length = 1" style="rounded=0;whiteSpace=wrap;html=1;fontSize=18;fontFamily=Ubuntu;fontSource=https%3A%2F%2Ffonts.googleapis.com%2Fcss%3Ffamily%3DUbuntu;" vertex="1" parent="-W8sQh3IrjSb4tXSnn8a-1">
          <mxGeometry x="490" y="460" width="140" height="40" as="geometry" />
        </mxCell>
        <mxCell id="-W8sQh3IrjSb4tXSnn8a-22" value="0xAF11" style="rounded=0;whiteSpace=wrap;html=1;fontFamily=Ubuntu;fontSource=https%3A%2F%2Ffonts.googleapis.com%2Fcss%3Ffamily%3DUbuntu;fontSize=17;fillColor=#dae8fc;strokeColor=#6c8ebf;" vertex="1" parent="-W8sQh3IrjSb4tXSnn8a-1">
          <mxGeometry x="490" y="380" width="140" height="30" as="geometry" />
        </mxCell>
        <mxCell id="-W8sQh3IrjSb4tXSnn8a-23" value="..." style="rounded=0;whiteSpace=wrap;html=1;fontSize=18;fontFamily=Ubuntu;fontSource=https%3A%2F%2Ffonts.googleapis.com%2Fcss%3Ffamily%3DUbuntu;" vertex="1" parent="-W8sQh3IrjSb4tXSnn8a-1">
          <mxGeometry x="490" y="500" width="140" height="40" as="geometry" />
        </mxCell>
        <mxCell id="E6sHO79h5l1ZLIEJ6gFB-0" value="" style="rounded=0;whiteSpace=wrap;html=1;fillColor=#e1d5e7;strokeColor=#9673a6;strokeWidth=10;" vertex="1" parent="-W8sQh3IrjSb4tXSnn8a-1">
          <mxGeometry x="80" y="330" width="320" height="80" as="geometry" />
        </mxCell>
        <mxCell id="E6sHO79h5l1ZLIEJ6gFB-1" value="myMethod2()" style="text;html=1;strokeColor=#9673a6;fillColor=#e1d5e7;align=center;verticalAlign=middle;whiteSpace=wrap;rounded=0;fontFamily=Ubuntu;fontSource=https%3A%2F%2Ffonts.googleapis.com%2Fcss%3Ffamily%3DUbuntu;fontSize=17;rotation=-90;" vertex="1" parent="-W8sQh3IrjSb4tXSnn8a-1">
          <mxGeometry x="-11.87" y="350" width="110" height="30" as="geometry" />
        </mxCell>
        <mxCell id="E6sHO79h5l1ZLIEJ6gFB-4" style="edgeStyle=orthogonalEdgeStyle;rounded=0;orthogonalLoop=1;jettySize=auto;html=1;entryX=0;entryY=0.5;entryDx=0;entryDy=0;" edge="1" parent="-W8sQh3IrjSb4tXSnn8a-1" source="E6sHO79h5l1ZLIEJ6gFB-2" target="-W8sQh3IrjSb4tXSnn8a-22">
          <mxGeometry relative="1" as="geometry">
            <Array as="points">
              <mxPoint x="460" y="350" />
              <mxPoint x="460" y="395" />
            </Array>
          </mxGeometry>
        </mxCell>
        <mxCell id="E6sHO79h5l1ZLIEJ6gFB-2" value="int[] nums = 0xAF11" style="rounded=0;whiteSpace=wrap;html=1;fontFamily=Ubuntu;fontSource=https%3A%2F%2Ffonts.googleapis.com%2Fcss%3Ffamily%3DUbuntu;fontSize=17;" vertex="1" parent="-W8sQh3IrjSb4tXSnn8a-1">
          <mxGeometry x="80" y="330" width="320" height="40" as="geometry" />
        </mxCell>
        <mxCell id="E6sHO79h5l1ZLIEJ6gFB-3" value="..." style="rounded=0;whiteSpace=wrap;html=1;fontFamily=Ubuntu;fontSource=https%3A%2F%2Ffonts.googleapis.com%2Fcss%3Ffamily%3DUbuntu;fontSize=17;" vertex="1" parent="-W8sQh3IrjSb4tXSnn8a-1">
          <mxGeometry x="80" y="370" width="320" height="40" as="geometry" />
        </mxCell>
      </root>
    </mxGraphModel>
  </diagram>
  <diagram name="Page-5" id="YMSzvklM4rc4LobtNvsz">
    <mxGraphModel dx="879" dy="594" grid="1" gridSize="10" guides="1" tooltips="1" connect="1" arrows="1" fold="1" page="1" pageScale="1" pageWidth="1100" pageHeight="850" math="0" shadow="0">
      <root>
        <mxCell id="BdujRaDKATSmiy5GhlIR-0" />
        <mxCell id="BdujRaDKATSmiy5GhlIR-1" parent="BdujRaDKATSmiy5GhlIR-0" />
        <mxCell id="BdujRaDKATSmiy5GhlIR-2" value="" style="rounded=0;whiteSpace=wrap;html=1;" vertex="1" parent="BdujRaDKATSmiy5GhlIR-1">
          <mxGeometry x="80" y="50" width="320" height="530" as="geometry" />
        </mxCell>
        <mxCell id="BdujRaDKATSmiy5GhlIR-3" value="" style="rounded=0;whiteSpace=wrap;html=1;" vertex="1" parent="BdujRaDKATSmiy5GhlIR-1">
          <mxGeometry x="400" y="50" width="640" height="530" as="geometry" />
        </mxCell>
        <mxCell id="BdujRaDKATSmiy5GhlIR-4" value="main thread" style="shape=hexagon;perimeter=hexagonPerimeter2;whiteSpace=wrap;html=1;fixedSize=1;fontFamily=Ubuntu;fontSource=https%3A%2F%2Ffonts.googleapis.com%2Fcss%3Ffamily%3DUbuntu;fontSize=17;" vertex="1" parent="BdujRaDKATSmiy5GhlIR-1">
          <mxGeometry x="180" y="10" width="120" height="30" as="geometry" />
        </mxCell>
        <mxCell id="BdujRaDKATSmiy5GhlIR-5" value="STACK" style="text;html=1;strokeColor=none;fillColor=none;align=center;verticalAlign=middle;whiteSpace=wrap;rounded=0;fontFamily=Ubuntu;fontSource=https%3A%2F%2Ffonts.googleapis.com%2Fcss%3Ffamily%3DUbuntu;fontSize=16;fontStyle=1" vertex="1" parent="BdujRaDKATSmiy5GhlIR-1">
          <mxGeometry x="200" y="590" width="60" height="30" as="geometry" />
        </mxCell>
        <mxCell id="BdujRaDKATSmiy5GhlIR-6" value="HEAP" style="text;html=1;strokeColor=none;fillColor=none;align=center;verticalAlign=middle;whiteSpace=wrap;rounded=0;fontFamily=Ubuntu;fontSource=https%3A%2F%2Ffonts.googleapis.com%2Fcss%3Ffamily%3DUbuntu;fontSize=16;fontStyle=1" vertex="1" parent="BdujRaDKATSmiy5GhlIR-1">
          <mxGeometry x="510" y="590" width="60" height="30" as="geometry" />
        </mxCell>
        <mxCell id="BdujRaDKATSmiy5GhlIR-7" value="" style="rounded=0;whiteSpace=wrap;html=1;fillColor=#d5e8d4;strokeColor=#82b366;strokeWidth=10;" vertex="1" parent="BdujRaDKATSmiy5GhlIR-1">
          <mxGeometry x="80" y="420" width="320" height="160" as="geometry" />
        </mxCell>
        <mxCell id="BdujRaDKATSmiy5GhlIR-8" value="main()" style="text;html=1;strokeColor=#82b366;fillColor=#d5e8d4;align=center;verticalAlign=middle;whiteSpace=wrap;rounded=0;fontFamily=Ubuntu;fontSource=https%3A%2F%2Ffonts.googleapis.com%2Fcss%3Ffamily%3DUbuntu;fontSize=17;rotation=-90;" vertex="1" parent="BdujRaDKATSmiy5GhlIR-1">
          <mxGeometry x="6.88" y="526.88" width="86.25" height="30" as="geometry" />
        </mxCell>
        <mxCell id="BdujRaDKATSmiy5GhlIR-9" style="edgeStyle=orthogonalEdgeStyle;rounded=0;orthogonalLoop=1;jettySize=auto;html=1;entryX=0;entryY=0.5;entryDx=0;entryDy=0;" edge="1" parent="BdujRaDKATSmiy5GhlIR-1" source="BdujRaDKATSmiy5GhlIR-10" target="BdujRaDKATSmiy5GhlIR-14">
          <mxGeometry relative="1" as="geometry" />
        </mxCell>
        <mxCell id="BdujRaDKATSmiy5GhlIR-10" value="String[] args = 0xAF10" style="rounded=0;whiteSpace=wrap;html=1;fontFamily=Ubuntu;fontSource=https%3A%2F%2Ffonts.googleapis.com%2Fcss%3Ffamily%3DUbuntu;fontSize=17;" vertex="1" parent="BdujRaDKATSmiy5GhlIR-1">
          <mxGeometry x="80" y="420" width="320" height="40" as="geometry" />
        </mxCell>
        <mxCell id="BdujRaDKATSmiy5GhlIR-11" value="..." style="rounded=0;whiteSpace=wrap;html=1;fontFamily=Ubuntu;fontSource=https%3A%2F%2Ffonts.googleapis.com%2Fcss%3Ffamily%3DUbuntu;fontSize=17;" vertex="1" parent="BdujRaDKATSmiy5GhlIR-1">
          <mxGeometry x="80" y="540" width="320" height="40" as="geometry" />
        </mxCell>
        <mxCell id="BdujRaDKATSmiy5GhlIR-12" value="" style="rounded=0;whiteSpace=wrap;html=1;" vertex="1" parent="BdujRaDKATSmiy5GhlIR-1">
          <mxGeometry x="490" y="240" width="20" height="40" as="geometry" />
        </mxCell>
        <mxCell id="BdujRaDKATSmiy5GhlIR-13" value="int length = 0" style="rounded=0;whiteSpace=wrap;html=1;fontSize=18;fontFamily=Ubuntu;fontSource=https%3A%2F%2Ffonts.googleapis.com%2Fcss%3Ffamily%3DUbuntu;" vertex="1" parent="BdujRaDKATSmiy5GhlIR-1">
          <mxGeometry x="490" y="280" width="140" height="40" as="geometry" />
        </mxCell>
        <mxCell id="BdujRaDKATSmiy5GhlIR-14" value="0xAF10" style="rounded=0;whiteSpace=wrap;html=1;fontFamily=Ubuntu;fontSource=https%3A%2F%2Ffonts.googleapis.com%2Fcss%3Ffamily%3DUbuntu;fontSize=17;fillColor=#dae8fc;strokeColor=#6c8ebf;" vertex="1" parent="BdujRaDKATSmiy5GhlIR-1">
          <mxGeometry x="490" y="210" width="140" height="30" as="geometry" />
        </mxCell>
        <mxCell id="BdujRaDKATSmiy5GhlIR-15" value="..." style="rounded=0;whiteSpace=wrap;html=1;fontSize=18;fontFamily=Ubuntu;fontSource=https%3A%2F%2Ffonts.googleapis.com%2Fcss%3Ffamily%3DUbuntu;" vertex="1" parent="BdujRaDKATSmiy5GhlIR-1">
          <mxGeometry x="490" y="320" width="140" height="40" as="geometry" />
        </mxCell>
        <mxCell id="BdujRaDKATSmiy5GhlIR-16" value="&lt;font style=&quot;font-size: 20px;&quot;&gt;5&lt;br&gt;[10]&lt;br&gt;&lt;/font&gt;" style="text;html=1;strokeColor=#b85450;fillColor=#f8cecc;align=left;verticalAlign=top;whiteSpace=wrap;rounded=0;fontFamily=Ubuntu;fontSource=https%3A%2F%2Ffonts.googleapis.com%2Fcss%3Ffamily%3DUbuntu;fontSize=20;" vertex="1" parent="BdujRaDKATSmiy5GhlIR-1">
          <mxGeometry x="710" y="80" width="480" height="230" as="geometry" />
        </mxCell>
        <mxCell id="BdujRaDKATSmiy5GhlIR-17" value="int a = 5" style="rounded=0;whiteSpace=wrap;html=1;fontFamily=Ubuntu;fontSource=https%3A%2F%2Ffonts.googleapis.com%2Fcss%3Ffamily%3DUbuntu;fontSize=17;" vertex="1" parent="BdujRaDKATSmiy5GhlIR-1">
          <mxGeometry x="80" y="460" width="320" height="40" as="geometry" />
        </mxCell>
        <mxCell id="BdujRaDKATSmiy5GhlIR-18" style="edgeStyle=orthogonalEdgeStyle;rounded=0;orthogonalLoop=1;jettySize=auto;html=1;entryX=0;entryY=0.5;entryDx=0;entryDy=0;" edge="1" parent="BdujRaDKATSmiy5GhlIR-1" source="BdujRaDKATSmiy5GhlIR-19" target="BdujRaDKATSmiy5GhlIR-22">
          <mxGeometry relative="1" as="geometry">
            <Array as="points">
              <mxPoint x="460" y="520" />
              <mxPoint x="460" y="395" />
            </Array>
          </mxGeometry>
        </mxCell>
        <mxCell id="BdujRaDKATSmiy5GhlIR-19" value="int[] b = 0xAF11" style="rounded=0;whiteSpace=wrap;html=1;fontFamily=Ubuntu;fontSource=https%3A%2F%2Ffonts.googleapis.com%2Fcss%3Ffamily%3DUbuntu;fontSize=17;" vertex="1" parent="BdujRaDKATSmiy5GhlIR-1">
          <mxGeometry x="80" y="500" width="320" height="40" as="geometry" />
        </mxCell>
        <mxCell id="BdujRaDKATSmiy5GhlIR-20" value="10" style="rounded=0;whiteSpace=wrap;html=1;fontFamily=Ubuntu;fontSource=https%3A%2F%2Ffonts.googleapis.com%2Fcss%3Ffamily%3DUbuntu;fontSize=18;" vertex="1" parent="BdujRaDKATSmiy5GhlIR-1">
          <mxGeometry x="490" y="410" width="60" height="50" as="geometry" />
        </mxCell>
        <mxCell id="BdujRaDKATSmiy5GhlIR-21" value="int length = 1" style="rounded=0;whiteSpace=wrap;html=1;fontSize=18;fontFamily=Ubuntu;fontSource=https%3A%2F%2Ffonts.googleapis.com%2Fcss%3Ffamily%3DUbuntu;" vertex="1" parent="BdujRaDKATSmiy5GhlIR-1">
          <mxGeometry x="490" y="460" width="140" height="40" as="geometry" />
        </mxCell>
        <mxCell id="BdujRaDKATSmiy5GhlIR-22" value="0xAF11" style="rounded=0;whiteSpace=wrap;html=1;fontFamily=Ubuntu;fontSource=https%3A%2F%2Ffonts.googleapis.com%2Fcss%3Ffamily%3DUbuntu;fontSize=17;fillColor=#dae8fc;strokeColor=#6c8ebf;" vertex="1" parent="BdujRaDKATSmiy5GhlIR-1">
          <mxGeometry x="490" y="380" width="140" height="30" as="geometry" />
        </mxCell>
        <mxCell id="BdujRaDKATSmiy5GhlIR-23" value="..." style="rounded=0;whiteSpace=wrap;html=1;fontSize=18;fontFamily=Ubuntu;fontSource=https%3A%2F%2Ffonts.googleapis.com%2Fcss%3Ffamily%3DUbuntu;" vertex="1" parent="BdujRaDKATSmiy5GhlIR-1">
          <mxGeometry x="490" y="500" width="140" height="40" as="geometry" />
        </mxCell>
      </root>
    </mxGraphModel>
  </diagram>
  <diagram name="Page-6" id="KemqDv_h4yynJC_-SrNh">
    <mxGraphModel dx="879" dy="594" grid="1" gridSize="10" guides="1" tooltips="1" connect="1" arrows="1" fold="1" page="1" pageScale="1" pageWidth="1100" pageHeight="850" math="0" shadow="0">
      <root>
        <mxCell id="raQYe7SEt5jXhseil4Z0-0" />
        <mxCell id="raQYe7SEt5jXhseil4Z0-1" parent="raQYe7SEt5jXhseil4Z0-0" />
        <mxCell id="raQYe7SEt5jXhseil4Z0-2" value="" style="rounded=0;whiteSpace=wrap;html=1;" vertex="1" parent="raQYe7SEt5jXhseil4Z0-1">
          <mxGeometry x="80" y="50" width="320" height="530" as="geometry" />
        </mxCell>
        <mxCell id="raQYe7SEt5jXhseil4Z0-3" value="" style="rounded=0;whiteSpace=wrap;html=1;" vertex="1" parent="raQYe7SEt5jXhseil4Z0-1">
          <mxGeometry x="400" y="50" width="640" height="530" as="geometry" />
        </mxCell>
        <mxCell id="raQYe7SEt5jXhseil4Z0-4" value="main thread" style="shape=hexagon;perimeter=hexagonPerimeter2;whiteSpace=wrap;html=1;fixedSize=1;fontFamily=Ubuntu;fontSource=https%3A%2F%2Ffonts.googleapis.com%2Fcss%3Ffamily%3DUbuntu;fontSize=17;" vertex="1" parent="raQYe7SEt5jXhseil4Z0-1">
          <mxGeometry x="180" y="10" width="120" height="30" as="geometry" />
        </mxCell>
        <mxCell id="raQYe7SEt5jXhseil4Z0-5" value="STACK" style="text;html=1;strokeColor=none;fillColor=none;align=center;verticalAlign=middle;whiteSpace=wrap;rounded=0;fontFamily=Ubuntu;fontSource=https%3A%2F%2Ffonts.googleapis.com%2Fcss%3Ffamily%3DUbuntu;fontSize=16;fontStyle=1" vertex="1" parent="raQYe7SEt5jXhseil4Z0-1">
          <mxGeometry x="200" y="590" width="60" height="30" as="geometry" />
        </mxCell>
        <mxCell id="raQYe7SEt5jXhseil4Z0-6" value="HEAP" style="text;html=1;strokeColor=none;fillColor=none;align=center;verticalAlign=middle;whiteSpace=wrap;rounded=0;fontFamily=Ubuntu;fontSource=https%3A%2F%2Ffonts.googleapis.com%2Fcss%3Ffamily%3DUbuntu;fontSize=16;fontStyle=1" vertex="1" parent="raQYe7SEt5jXhseil4Z0-1">
          <mxGeometry x="510" y="590" width="60" height="30" as="geometry" />
        </mxCell>
        <mxCell id="raQYe7SEt5jXhseil4Z0-12" value="" style="rounded=0;whiteSpace=wrap;html=1;" vertex="1" parent="raQYe7SEt5jXhseil4Z0-1">
          <mxGeometry x="490" y="240" width="20" height="40" as="geometry" />
        </mxCell>
        <mxCell id="raQYe7SEt5jXhseil4Z0-13" value="int length = 0" style="rounded=0;whiteSpace=wrap;html=1;fontSize=18;fontFamily=Ubuntu;fontSource=https%3A%2F%2Ffonts.googleapis.com%2Fcss%3Ffamily%3DUbuntu;" vertex="1" parent="raQYe7SEt5jXhseil4Z0-1">
          <mxGeometry x="490" y="280" width="140" height="40" as="geometry" />
        </mxCell>
        <mxCell id="raQYe7SEt5jXhseil4Z0-14" value="0xAF10" style="rounded=0;whiteSpace=wrap;html=1;fontFamily=Ubuntu;fontSource=https%3A%2F%2Ffonts.googleapis.com%2Fcss%3Ffamily%3DUbuntu;fontSize=17;fillColor=#dae8fc;strokeColor=#6c8ebf;" vertex="1" parent="raQYe7SEt5jXhseil4Z0-1">
          <mxGeometry x="490" y="210" width="140" height="30" as="geometry" />
        </mxCell>
        <mxCell id="raQYe7SEt5jXhseil4Z0-15" value="..." style="rounded=0;whiteSpace=wrap;html=1;fontSize=18;fontFamily=Ubuntu;fontSource=https%3A%2F%2Ffonts.googleapis.com%2Fcss%3Ffamily%3DUbuntu;" vertex="1" parent="raQYe7SEt5jXhseil4Z0-1">
          <mxGeometry x="490" y="320" width="140" height="40" as="geometry" />
        </mxCell>
        <mxCell id="raQYe7SEt5jXhseil4Z0-16" value="&lt;font style=&quot;font-size: 20px;&quot;&gt;5&lt;br&gt;[10]&lt;br&gt;&lt;/font&gt;" style="text;html=1;strokeColor=#b85450;fillColor=#f8cecc;align=left;verticalAlign=top;whiteSpace=wrap;rounded=0;fontFamily=Ubuntu;fontSource=https%3A%2F%2Ffonts.googleapis.com%2Fcss%3Ffamily%3DUbuntu;fontSize=20;" vertex="1" parent="raQYe7SEt5jXhseil4Z0-1">
          <mxGeometry x="710" y="80" width="480" height="230" as="geometry" />
        </mxCell>
        <mxCell id="raQYe7SEt5jXhseil4Z0-20" value="10" style="rounded=0;whiteSpace=wrap;html=1;fontFamily=Ubuntu;fontSource=https%3A%2F%2Ffonts.googleapis.com%2Fcss%3Ffamily%3DUbuntu;fontSize=18;" vertex="1" parent="raQYe7SEt5jXhseil4Z0-1">
          <mxGeometry x="490" y="410" width="60" height="50" as="geometry" />
        </mxCell>
        <mxCell id="raQYe7SEt5jXhseil4Z0-21" value="int length = 1" style="rounded=0;whiteSpace=wrap;html=1;fontSize=18;fontFamily=Ubuntu;fontSource=https%3A%2F%2Ffonts.googleapis.com%2Fcss%3Ffamily%3DUbuntu;" vertex="1" parent="raQYe7SEt5jXhseil4Z0-1">
          <mxGeometry x="490" y="460" width="140" height="40" as="geometry" />
        </mxCell>
        <mxCell id="raQYe7SEt5jXhseil4Z0-22" value="0xAF11" style="rounded=0;whiteSpace=wrap;html=1;fontFamily=Ubuntu;fontSource=https%3A%2F%2Ffonts.googleapis.com%2Fcss%3Ffamily%3DUbuntu;fontSize=17;fillColor=#dae8fc;strokeColor=#6c8ebf;" vertex="1" parent="raQYe7SEt5jXhseil4Z0-1">
          <mxGeometry x="490" y="380" width="140" height="30" as="geometry" />
        </mxCell>
        <mxCell id="raQYe7SEt5jXhseil4Z0-23" value="..." style="rounded=0;whiteSpace=wrap;html=1;fontSize=18;fontFamily=Ubuntu;fontSource=https%3A%2F%2Ffonts.googleapis.com%2Fcss%3Ffamily%3DUbuntu;" vertex="1" parent="raQYe7SEt5jXhseil4Z0-1">
          <mxGeometry x="490" y="500" width="140" height="40" as="geometry" />
        </mxCell>
        <mxCell id="o7km4PxlbOClaMfCfzWe-0" value="" style="shape=stencil(nVjLctswDPwaXzEgwec5Tf8jM3FqT90447ivvy9UD2URtDZ1b7K8oEBgsQS4kYf33dPbduP5/Xw6ft3+3D+fdxv5tPF+/7rbnvZnfdrI40YeXo6n7ZfT8fvr8+X329OEnJ6+HX9MK/y62NVKVSYrz78vb5ii//vi8wV/2L/2eNfjHUUH8JlS6vBCsQJ8pFo6fKSM/JmXa/hCCeGZpMc7T1LWDUqiEHqDRDUBA0eFOwPvyYd1g5wo5t6gEIMvZKbi+5gGEl43SIFyv+nAlIFLUYPYZyFkciBt0VM0aRMKed0gJMrGoJIAl4JrfzeDaVcg05LI95tOlRL4giiTe6rmQBzXDXxueZ0NMlWQB+W+9NRQsniQaVcb1WYDdQmUm9M0mS8kEgEGocVkNijYwFPow6olxYAaji29q4N5KC2GM95TBR/ItkBrgFxN5PrqUc3xAB+o9EytCTJVKMcen+H6fohPwaSgYPxXTQZ4HhI2a/4a3g14oJCqqL0/jpURoAyY/LABlGC2R86EB3XJTT0X+ALX58GfAops3t0Cj5SIW8ku8AkmYPQ/AsLdik+ACRvjH+D6MvgfMIGG+ASYr5GgEfInxgEPzhq2LcIUf+jPiEen5Shwyh8YnzgWGOSbFTjFw/1KH59/KMh7DdzAUOwRl/t2zAOjC8zAjYrECjFWJJRQHjKAGecGfzCj78O7wZ8CFciTM/HPkKHap5j8JiogPqHpzeJIrcAf7elNfvWQBfnKrQ+b8QLzW4YK800z1noUGyBtzFACNKL9FwrWFO2zvOnkMjyUdMrIvUqXiA2qlaEikKTKimr2wJAV2jmVod9FB4121M4YCDz5JDaaLXp2Dwx0jql9lHQqEMA8nTuMOOqsg5oJnWzMHnSyYbBpXc9MBfrNgqcz41KYFXxt/pM+0yKw3PLQ8mpFJTT0OuuSSg4SAOVm7V1S/qI5X8vFJE5LCh05WvG24mCXrAoU7EUCCqoqosmzwKldFTf1/rjWhq1dnJiuiD/ER4NnUM3TieEtHq+frD9ospzwxeJRvvQETvetb8RlPnTX8HXwH10szTPDIv6ID9VeRM1t88oRMjQhDC9lbhuAorz2WFc8aqv/42rvA7w+XO8RX/aHw+Uacvm/vXfUV5c7S3n8Aw==);lineShape=1;" vertex="1" parent="raQYe7SEt5jXhseil4Z0-1">
          <mxGeometry x="287.1517362450554" y="81.58652611568289" width="421.259577771674" height="437.1570586084175" as="geometry" />
        </mxCell>
        <mxCell id="o7km4PxlbOClaMfCfzWe-1" value="" style="shape=stencil(lVjZctswDPwavWJI8AKf0/Q/MhOn9tS1M47T4+8L1SNbIK1V/SbTWHGxOAhqCE8f25f3zcDu43w6ft/82r2et0P4MjDvDtvNaXfWpyE8D+Hp7XjafDsdPw+vl9/vL6Pl+PTj+HN8w+8LzlGQEcTuz7Tg8r+Frxfz/e4wM/cUvTH35OqyeaRcjXmkkJbNhZwlUygKIMMUo2Wj/AoAFErZAjJxWAZwmPhOAHU4A0pcqTgLKFQApaAErM8hkvdAUqZiKUVH0QGAULVOx0wJBC1FSmwASYUGYUuVot0hFRLgdL66OAFyIIcAQtEmUi5UQRwKU7Y+jCtApZIpW1lLgaktV9UngHhiEDiJbXZLIgcoiWaOdVpk8uouoHpKth4qE4PA1dTWg65UEIdaSSwlXYmIUqUaOwCQdQRIC0iopp2bVJwhMnaidk6gGh0BpQUI6JIjgFtABX3m9r45AOT3yNj6MNNhEdFzwpHIPaeIAb6TCeuaulgX7HXqApGxD/0OqPeN7+tUSljW3FGKONQltICAKUmX32uAnhLoTLfknANW8rvbIYHUWChSINN9RMHC9p1DVgBdb6pYJ+l2WGuXNpv+p0pTt8VKwvaccOweBCQKTXZk3MI9hSZyOrOAHfSga84tqeTBqSJhCuzsKEVVqoe1b3bwsHHoOBBsf9VxAB1DOl40k2IJ03m/NNKwzY1xyAEq6Ygk1gddSXgs89aHJBTADjr4cTPHMez4OloW2/FjIY9mUabUABwsOR2PnY20jseob3A3i+qtgkGkdcRvZlFmOMfpJSI0RZ1heus1hW096IoDO5Quu8mBaojTeXO7ZAlw2LeloJUAYuxaeRzU/3p9vJknUAWuDa+bEmTJvCWDztruCHHw+nnn7Qzieoe7x662yqB73h3d0cVczdu3o5xxU4rPzEHdqnl5yDy0ymAyD32DWDXXh9vnjrfdfn/5WjL/v/08okuXTyvh+S8=);lineShape=1;" vertex="1" parent="raQYe7SEt5jXhseil4Z0-1">
          <mxGeometry x="204.5849147841309" y="150.59498184919573" width="580.0627191786002" height="406.2664752719878" as="geometry" />
        </mxCell>
      </root>
    </mxGraphModel>
  </diagram>
</mxfile>
